<!-- Lucide / Feather subset, source 3859eb20fabe7fd95652fcd4395843b6c0bcdd01; see icons-LICENSE.txt -->
<svg xmlns="http://www.w3.org/2000/svg"><symbol id="layout-dashboard" viewBox="0 0 24 24"><rect width="7" height="9" x="3" y="3" rx="1" />
  <rect width="7" height="5" x="14" y="3" rx="1" />
  <rect width="7" height="9" x="14" y="12" rx="1" />
  <rect width="7" height="5" x="3" y="16" rx="1" />
</symbol><symbol id="list-checks" viewBox="0 0 24 24"><path d="M13 5h8" />
  <path d="M13 12h8" />
  <path d="M13 19h8" />
  <path d="m3 17 2 2 4-4" />
  <path d="m3 7 2 2 4-4" />
</symbol><symbol id="cpu" viewBox="0 0 24 24"><path d="M12 20v2" />
  <path d="M12 2v2" />
  <path d="M17 20v2" />
  <path d="M17 2v2" />
  <path d="M2 12h2" />
  <path d="M2 17h2" />
  <path d="M2 7h2" />
  <path d="M20 12h2" />
  <path d="M20 17h2" />
  <path d="M20 7h2" />
  <path d="M7 20v2" />
  <path d="M7 2v2" />
  <rect x="4" y="4" width="16" height="16" rx="2" />
  <rect x="8" y="8" width="8" height="8" rx="1" />
</symbol><symbol id="settings" viewBox="0 0 24 24"><path d="M9.671 4.136a2.34 2.34 0 0 1 4.659 0 2.34 2.34 0 0 0 3.319 1.915 2.34 2.34 0 0 1 2.33 4.033 2.34 2.34 0 0 0 0 3.831 2.34 2.34 0 0 1-2.33 4.033 2.34 2.34 0 0 0-3.319 1.915 2.34 2.34 0 0 1-4.659 0 2.34 2.34 0 0 0-3.32-1.915 2.34 2.34 0 0 1-2.33-4.033 2.34 2.34 0 0 0 0-3.831A2.34 2.34 0 0 1 6.35 6.051a2.34 2.34 0 0 0 3.319-1.915" />
  <circle cx="12" cy="12" r="3" />
</symbol><symbol id="plus" viewBox="0 0 24 24"><path d="M5 12h14" />
  <path d="M12 5v14" />
</symbol><symbol id="arrow-left" viewBox="0 0 24 24"><path d="m12 19-7-7 7-7" />
  <path d="M19 12H5" />
</symbol><symbol id="arrow-right" viewBox="0 0 24 24"><path d="M5 12h14" />
  <path d="m12 5 7 7-7 7" />
</symbol><symbol id="chevron-right" viewBox="0 0 24 24"><path d="m9 18 6-6-6-6" />
</symbol><symbol id="x" viewBox="0 0 24 24"><path d="M18 6 6 18" />
  <path d="m6 6 12 12" />
</symbol><symbol id="sun" viewBox="0 0 24 24"><circle cx="12" cy="12" r="4" />
  <path d="M12 2v2" />
  <path d="M12 20v2" />
  <path d="m4.93 4.93 1.41 1.41" />
  <path d="m17.66 17.66 1.41 1.41" />
  <path d="M2 12h2" />
  <path d="M20 12h2" />
  <path d="m6.34 17.66-1.41 1.41" />
  <path d="m19.07 4.93-1.41 1.41" />
</symbol><symbol id="sliders-horizontal" viewBox="0 0 24 24"><path d="M10 5H3" />
  <path d="M12 19H3" />
  <path d="M14 3v4" />
  <path d="M16 17v4" />
  <path d="M21 12h-9" />
  <path d="M21 19h-5" />
  <path d="M21 5h-7" />
  <path d="M8 10v4" />
  <path d="M8 12H3" />
</symbol><symbol id="shield-check" viewBox="0 0 24 24"><path d="M20 13c0 5-3.5 7.5-7.66 8.95a1 1 0 0 1-.67-.01C7.5 20.5 4 18 4 13V6a1 1 0 0 1 1-1c2 0 4.5-1.2 6.24-2.72a1.17 1.17 0 0 1 1.52 0C14.51 3.81 17 5 19 5a1 1 0 0 1 1 1z" />
  <path d="m9 12 2 2 4-4" />
</symbol></svg>